<svg width="36" height="36" viewBox="0 0 36 36" fill="none" xmlns="http://www.w3.org/2000/svg">
<g id="bx:bxs-lock-alt" opacity="0.3">
<path id="Vector" d="M29.3779 18.2443C29.3779 16.6527 28.0835 15.3583 26.4919 15.3583H25.0489V11.0293C25.0489 7.05097 21.8122 3.81433 17.8339 3.81433C13.8555 3.81433 10.6189 7.05097 10.6189 11.0293V15.3583H9.17591C7.58429 15.3583 6.28992 16.6527 6.28992 18.2443V29.7883C6.28992 31.3799 7.58429 32.6743 9.17591 32.6743H26.4919C28.0835 32.6743 29.3779 31.3799 29.3779 29.7883V18.2443ZM13.5049 11.0293C13.5049 8.6426 15.4472 6.70032 17.8339 6.70032C20.2206 6.70032 22.1629 8.6426 22.1629 11.0293V15.3583H13.5049V11.0293Z" fill="white"/>
</g>
</svg>
