<svg width="27" height="23" viewBox="0 0 27 23" fill="none" xmlns="http://www.w3.org/2000/svg">
<path id="Vector" d="M26.15 3.375C25.1875 3.8125 24.15 4.1 23.075 4.2375C24.175 3.575 25.025 2.525 25.425 1.2625C24.3875 1.8875 23.2375 2.325 22.025 2.575C21.0375 1.5 19.65 0.875 18.075 0.875C15.1375 0.875 12.7375 3.275 12.7375 6.2375C12.7375 6.6625 12.7875 7.075 12.875 7.4625C8.425 7.2375 4.4625 5.1 1.825 1.8625C1.3625 2.65 1.1 3.575 1.1 4.55C1.1 6.4125 2.0375 8.0625 3.4875 9C2.6 9 1.775 8.75 1.05 8.375V8.4125C1.05 11.0125 2.9 13.1875 5.35 13.675C4.56341 13.8903 3.73762 13.9202 2.9375 13.7625C3.27701 14.8281 3.94192 15.7605 4.83877 16.4287C5.73562 17.0968 6.81931 17.4671 7.9375 17.4875C6.04204 18.988 3.6925 19.7991 1.275 19.7875C0.85 19.7875 0.425 19.7625 0 19.7125C2.375 21.2375 5.2 22.125 8.225 22.125C18.075 22.125 23.4875 13.95 23.4875 6.8625C23.4875 6.625 23.4875 6.4 23.475 6.1625C24.525 5.4125 25.425 4.4625 26.15 3.375Z" fill="white" fill-opacity="0.3"/>
</svg>
